<svg width="41" height="87" viewBox="0 0 41 87" fill="none" xmlns="http://www.w3.org/2000/svg">
<path d="M20.6983 37.6499C20.5705 37.6304 20.4435 37.6087 20.3208 37.5875C20.2911 37.5823 20.2616 37.5772 20.2322 37.5721C19.984 37.5289 19.7463 37.4876 19.5081 37.4576C19.0335 37.3979 18.6587 37.3994 18.3717 37.4829C18.3658 37.497 18.3594 37.5135 18.3525 37.5326C18.2969 37.687 18.2461 37.9179 18.2163 38.1949C18.1538 38.776 18.205 39.3421 18.3175 39.6136L18.3179 39.6146C18.8993 41.0233 19.5959 42.3902 20.3111 43.7869C20.3278 43.8196 20.3446 43.8524 20.3614 43.8851C21.0561 45.2417 21.766 46.628 22.3703 48.0645L22.3705 48.0649C23.9659 51.8639 25.5095 55.7272 26.7228 59.6917L26.7231 59.6925C27.2564 61.4416 27.2988 62.9939 26.4378 64.0794C25.5796 65.1616 24.0576 65.4829 22.2397 65.3856L22.2394 65.3856C18.9848 65.2098 15.7049 64.7789 12.5182 64.0595L20.6983 37.6499ZM20.6983 37.6499C20.9373 38.1792 21.1559 38.6715 21.3618 39.1353C21.8804 40.3032 22.319 41.291 22.8037 42.2374C26.2241 48.9189 29.1111 55.6144 30.2823 63.1045L30.2823 63.1047C30.7257 65.9364 30.2272 67.3093 29.384 68.063C28.4699 68.8801 26.9356 69.196 24.7405 69.3484C19.7362 69.6936 14.9302 68.2989 10.0329 66.6848L10.0324 66.6846C7.38741 65.8148 4.62767 65.2769 1.93241 64.7516C1.46782 64.661 1.00514 64.5708 0.545303 64.4794L0.545125 64.4794C-0.0943609 64.3524 -0.758806 63.8769 -1.21872 63.2056C-1.67893 62.5339 -1.85484 61.7853 -1.69764 61.1766M20.6983 37.6499L-1.69764 61.1766M-1.69764 61.1766C-1.61593 60.8611 -1.51271 60.7 -1.4351 60.6174C-1.36462 60.5425 -1.28506 60.4993 -1.17391 60.4756C-0.892444 60.4156 -0.495198 60.4891 0.0847591 60.6448C1.53389 61.0374 2.99213 61.4623 4.45791 61.8894C7.12295 62.666 9.81285 63.4498 12.518 64.0594L-1.69764 61.1766ZM18.4061 37.4128C18.408 37.41 18.4078 37.4106 18.4054 37.4138L18.4061 37.4128Z" stroke="#DD0913" stroke-width="1.5"/>
<path d="M12.1278 54.6828C12.0257 54.6351 11.9122 54.5821 11.7993 54.534C7.57618 46.8225 0.811092 43.1299 -5.69139 39.5807C-6.10476 39.355 -6.51707 39.13 -6.92759 38.9045L-6.92817 38.9042C-16.7071 33.5446 -27.309 30.6389 -38.0584 28.3379C-38.0946 28.3302 -38.196 28.2902 -38.3509 28.1599C-38.4984 28.0358 -38.6566 27.8615 -38.8063 27.6526C-39.1175 27.2185 -39.3145 26.746 -39.35 26.4441L-39.35 26.444C-39.403 25.9945 -39.2666 25.7133 -39.0966 25.5679C-38.9288 25.4244 -38.5782 25.2857 -37.9379 25.4428L-37.9377 25.4429C-36.4071 25.8178 -34.8846 26.1398 -33.3764 26.4587C-30.2555 27.1186 -27.1958 27.7656 -24.2522 28.8428C-17.4937 31.3172 -10.7734 33.9949 -4.47591 37.3544L-4.47574 37.3545C-0.230289 39.6179 3.68165 42.4988 7.63387 45.4094C8.7255 46.2133 9.82021 47.0195 10.9259 47.8155L10.9262 47.8157C11.885 48.5054 12.6274 49.4969 13.4353 50.576C13.6306 50.8368 13.8298 51.1028 14.0367 51.3708C14.1876 51.5692 14.3361 51.8314 14.4313 52.0917C14.5326 52.3684 14.5416 52.5542 14.5236 52.6381L14.5188 52.6602C14.3981 53.2147 14.2685 53.8102 14.0838 54.3163C13.8796 54.8759 13.6853 55.0986 13.5785 55.1523L13.575 55.1541C13.5749 55.1538 13.5248 55.1733 13.3813 55.1531C13.2277 55.1315 13.0355 55.0741 12.81 54.9855C12.5944 54.9008 12.3803 54.8008 12.1669 54.7011L12.1449 54.6908L12.1278 54.6828Z" stroke="#DD0913" stroke-width="1.5"/>
</svg>
