<svg width="115" height="104" viewBox="0 0 115 104" fill="none" xmlns="http://www.w3.org/2000/svg">
<rect x="0.887695" y="24.9263" width="96.3071" height="81" rx="19.1339" transform="rotate(-15 0.887695 24.9263)" fill="#FAFAFA"/>
<path d="M54.8704 34.6193C65.4068 34.679 73.5015 38.3138 79.8479 45.3284C82.4128 48.1689 84.4883 51.6147 86.113 55.1054C87.6598 58.4463 86.3421 61.6348 83.7882 64.2632C78.324 69.881 71.2434 72.3567 63.9264 73.9854C58.8735 75.1117 53.5937 75.6729 48.4166 75.6661C40.0768 75.6627 33.3193 68.5591 33.0513 59.1003C32.636 44.9678 42.8452 33.2327 54.0441 28.6103C54.8351 28.2845 55.8664 27.9039 56.5834 28.148C57.7281 28.543 58.7046 29.4383 59.7482 30.126C59.0707 30.9808 58.4561 31.8947 57.702 32.6752C57.176 33.2145 56.4538 33.5502 54.8768 34.6081L54.8704 34.6193ZM62.0276 69.6482C67.4128 67.0483 72.3821 65.0814 76.893 62.3554C81.209 59.748 81.4731 56.9271 79.3463 52.3381C76.6142 46.4414 71.5193 43.2167 66.1006 40.5813C57.8265 36.5584 42.7949 40.4818 40.135 51.9485C39.4544 54.8715 38.6542 57.912 38.793 60.862C39.0285 66.0052 40.6715 69.5289 45.858 69.8177C51.3325 70.1242 56.8478 69.7369 62.03 69.6571L62.0276 69.6482Z" fill="#CE82FF"/>
</svg>
