<svg width="106" height="105" viewBox="0 0 106 105" fill="none" xmlns="http://www.w3.org/2000/svg">
<rect x="24.7734" width="85" height="83.5345" rx="21.9828" transform="rotate(16.6147 24.7734 0)" fill="#FAFAFA"/>
<path d="M44.6379 28.68C39.8604 30.9164 35.0958 33.1456 29.8759 35.5889C30.0226 30.8338 32.317 28.9387 35.2224 27.7288C50.8531 21.1885 65.5065 21.4946 77.8558 35.7171C85.3255 44.3189 84.9054 53.2336 76.5166 62.4704C70.3593 69.2578 62.7462 73.9274 53.7891 75.8129C48.7879 76.8675 43.55 77.5127 38.4818 77.2246C31.9998 76.8645 26.7667 69.914 27.4365 63.4786C28.4756 53.5462 32.6369 44.8843 38.7343 37.0953C40.7571 34.507 42.9217 32.0266 45.0223 29.5052C44.8985 29.2278 44.7647 28.9474 44.6409 28.67L44.6379 28.68ZM54.0743 27.484C52.7045 29.6332 51.9607 31.1056 50.9363 32.3521C47.1303 36.9443 42.6314 41.0893 39.5143 46.1057C35.957 51.8325 33.1505 58.1768 33.9475 65.345C34.4628 69.9586 36.7284 72.5695 41.2863 72.2352C45.6236 71.9116 50.0098 70.8046 54.1484 69.3614C61.8803 66.6621 68.6228 62.3231 73.533 55.5243C77.9211 49.4552 77.7012 41.7378 71.7033 35.2367C66.7967 29.9249 60.4665 27.4894 54.0773 27.474L54.0743 27.484Z" fill="#FF4B4B"/>
</svg>
