<svg width="57" height="101" viewBox="0 0 57 101" fill="none" xmlns="http://www.w3.org/2000/svg">
<path d="M0.75595 21.4891L0.755878 21.4908C0.671886 23.3638 1.48922 25.0083 3.23965 26.2193C4.98268 27.4253 7.67576 28.2112 11.33 28.2486C11.8862 27.8885 12.5478 27.4807 13.2827 27.0277C15.5098 25.6548 18.4097 23.8672 21.0847 21.7368L21.0848 21.7368C22.862 20.3219 23.4582 18.5688 23.1871 17.1281C22.9188 15.7022 21.7648 14.3885 19.6197 13.8989C17.5836 13.4368 15.3957 12.9847 13.2762 12.8175C11.1518 12.6499 9.15759 12.7746 7.48862 13.419L0.75595 21.4891ZM0.75595 21.4891C0.812175 20.1685 1.6867 18.4526 3.03304 16.8615C4.36648 15.2857 6.0387 13.98 7.48826 13.4192L0.75595 21.4891Z" stroke="#DD0913" stroke-width="1.5"/>
<path d="M33.8017 12.3268L33.802 12.3253C34.325 8.54606 35.9489 6.22027 38.0984 5.26759C40.2591 4.30993 43.2031 4.62633 46.6055 6.69295L46.6071 6.69397C47.0704 6.97368 47.5494 7.24363 48.0187 7.5081C48.0678 7.53575 48.1167 7.56334 48.1655 7.59087C48.6858 7.88426 49.1933 8.17289 49.6798 8.47548C50.6558 9.0826 51.5021 9.71932 52.1258 10.4876C52.5383 11.0022 52.9353 11.9544 53.1303 12.927C53.2261 13.4044 53.2652 13.8492 53.2447 14.2098C53.2231 14.5872 53.1419 14.7757 53.0912 14.8422C51.3747 16.9705 49.2561 18.723 47.5483 20.1357C47.0679 20.5331 46.6201 20.9035 46.2228 21.2479C42.2171 21.1925 38.9493 20.0466 36.7708 18.3821C34.5438 16.6805 33.4986 14.4856 33.8017 12.3268Z" stroke="#DD0913" stroke-width="1.5"/>
<path d="M33.8017 53.3268L33.802 53.3253C34.325 49.5461 35.9489 47.2203 38.0984 46.2676C40.2591 45.3099 43.2031 45.6263 46.6055 47.693L46.6071 47.694C47.0704 47.9737 47.5494 48.2436 48.0187 48.5081C48.0678 48.5357 48.1167 48.5633 48.1655 48.5909C48.6858 48.8843 49.1933 49.1729 49.6798 49.4755C50.6558 50.0826 51.5021 50.7193 52.1258 51.4876C52.5383 52.0022 52.9353 52.9544 53.1303 53.927C53.2261 54.4044 53.2652 54.8492 53.2447 55.2098C53.2231 55.5872 53.1419 55.7757 53.0912 55.8422C51.3747 57.9705 49.2561 59.723 47.5483 61.1357C47.0679 61.5331 46.6201 61.9035 46.2228 62.2479C42.2171 62.1925 38.9493 61.0466 36.7708 59.3821C34.5438 57.6805 33.4986 55.4856 33.8017 53.3268Z" stroke="#DD0913" stroke-width="1.5"/>
</svg>
