<svg width="178" height="42" viewBox="0 0 178 42" fill="none" xmlns="http://www.w3.org/2000/svg">
<path d="M7.99665 2.57471L5.3645 5.20686L14.577 7.83901V28.8962H18.5253V2.57471H7.99665Z" stroke="#DD0913" stroke-width="1.98484"/>
<path d="M31.686 15.7355L21.1574 7.83901L26.4217 15.7355L21.1574 20.9998L27.7378 26.2641L29.0539 39.4248L31.686 26.2641L26.4217 20.9998L31.686 15.7355Z" stroke="#DD0913" stroke-width="1.98484"/>
<path d="M54.3904 17.02C53.0304 16.2467 51.5771 15.7867 50.0304 15.64V28H48.0504V15.64C46.4904 15.7867 45.0304 16.2467 43.6704 17.02L42.9704 15.44C44.7571 14.3733 46.7704 13.84 49.0104 13.84C51.2771 13.84 53.3037 14.3733 55.0904 15.44L54.3904 17.02ZM62.4835 17.3C63.8302 17.3 64.8969 17.6933 65.6835 18.48C66.4835 19.2533 66.8835 20.3933 66.8835 21.9V28H64.9635V22.12C64.9635 21.0933 64.7169 20.32 64.2235 19.8C63.7302 19.28 63.0235 19.02 62.1035 19.02C61.0635 19.02 60.2435 19.3267 59.6435 19.94C59.0435 20.54 58.7435 21.4067 58.7435 22.54V28H56.8235V13.16H58.7435V18.9C59.1435 18.3933 59.6635 18 60.3035 17.72C60.9569 17.44 61.6835 17.3 62.4835 17.3ZM72.2768 19.18C72.6102 18.5667 73.1035 18.1 73.7568 17.78C74.4102 17.46 75.2035 17.3 76.1368 17.3V19.16C76.0302 19.1467 75.8835 19.14 75.6968 19.14C74.6568 19.14 73.8368 19.4533 73.2368 20.08C72.6502 20.6933 72.3568 21.5733 72.3568 22.72V28H70.4368V17.4H72.2768V19.18ZM82.9456 28.12C81.8922 28.12 80.9456 27.8867 80.1056 27.42C79.2656 26.9533 78.6056 26.3133 78.1256 25.5C77.6589 24.6733 77.4256 23.74 77.4256 22.7C77.4256 21.66 77.6589 20.7333 78.1256 19.92C78.6056 19.0933 79.2656 18.4533 80.1056 18C80.9456 17.5333 81.8922 17.3 82.9456 17.3C83.9989 17.3 84.9389 17.5333 85.7656 18C86.6056 18.4533 87.2589 19.0933 87.7256 19.92C88.2056 20.7333 88.4456 21.66 88.4456 22.7C88.4456 23.74 88.2056 24.6733 87.7256 25.5C87.2589 26.3133 86.6056 26.9533 85.7656 27.42C84.9389 27.8867 83.9989 28.12 82.9456 28.12ZM82.9456 26.44C83.6256 26.44 84.2322 26.2867 84.7656 25.98C85.3122 25.66 85.7389 25.22 86.0456 24.66C86.3522 24.0867 86.5056 23.4333 86.5056 22.7C86.5056 21.9667 86.3522 21.32 86.0456 20.76C85.7389 20.1867 85.3122 19.7467 84.7656 19.44C84.2322 19.1333 83.6256 18.98 82.9456 18.98C82.2656 18.98 81.6522 19.1333 81.1056 19.44C80.5722 19.7467 80.1456 20.1867 79.8256 20.76C79.5189 21.32 79.3656 21.9667 79.3656 22.7C79.3656 23.4333 79.5189 24.0867 79.8256 24.66C80.1456 25.22 80.5722 25.66 81.1056 25.98C81.6522 26.2867 82.2656 26.44 82.9456 26.44ZM96.7609 17.3C98.1076 17.3 99.1742 17.6933 99.9609 18.48C100.761 19.2533 101.161 20.3933 101.161 21.9V28H99.2409V22.12C99.2409 21.0933 98.9942 20.32 98.5009 19.8C98.0076 19.28 97.3009 19.02 96.3809 19.02C95.3409 19.02 94.5209 19.3267 93.9209 19.94C93.3209 20.54 93.0209 21.4067 93.0209 22.54V28H91.1009V17.4H92.9409V19C93.3276 18.4533 93.8476 18.0333 94.5009 17.74C95.1676 17.4467 95.9209 17.3 96.7609 17.3ZM109.553 26.44C110.819 26.44 111.839 26.0133 112.613 25.16L113.653 26.4C113.186 26.96 112.593 27.3867 111.873 27.68C111.166 27.9733 110.373 28.12 109.493 28.12C108.373 28.12 107.379 27.8933 106.513 27.44C105.646 26.9733 104.973 26.3267 104.493 25.5C104.026 24.6733 103.793 23.74 103.793 22.7C103.793 21.6733 104.019 20.7467 104.473 19.92C104.939 19.0933 105.573 18.4533 106.373 18C107.186 17.5333 108.099 17.3 109.113 17.3C110.073 17.3 110.946 17.52 111.733 17.96C112.519 18.3867 113.146 18.9933 113.613 19.78C114.079 20.5667 114.319 21.4733 114.333 22.5L105.913 24.14C106.179 24.8733 106.626 25.44 107.253 25.84C107.893 26.24 108.659 26.44 109.553 26.44ZM109.113 18.92C108.446 18.92 107.846 19.0733 107.313 19.38C106.793 19.6867 106.386 20.12 106.093 20.68C105.799 21.2267 105.653 21.8667 105.653 22.6V22.8L112.433 21.52C112.259 20.7467 111.873 20.12 111.273 19.64C110.673 19.16 109.953 18.92 109.113 18.92ZM126.659 28L123.639 23.7C123.266 23.7267 122.972 23.74 122.759 23.74H119.299V28H117.299V14H122.759C124.572 14 125.999 14.4333 127.039 15.3C128.079 16.1667 128.599 17.36 128.599 18.88C128.599 19.96 128.332 20.88 127.799 21.64C127.266 22.4 126.506 22.9533 125.519 23.3L128.839 28H126.659ZM122.699 22.04C123.966 22.04 124.932 21.7667 125.599 21.22C126.266 20.6733 126.599 19.8933 126.599 18.88C126.599 17.8667 126.266 17.0933 125.599 16.56C124.932 16.0133 123.966 15.74 122.699 15.74H119.299V22.04H122.699ZM136.09 28.12C135.037 28.12 134.09 27.8867 133.25 27.42C132.41 26.9533 131.75 26.3133 131.27 25.5C130.803 24.6733 130.57 23.74 130.57 22.7C130.57 21.66 130.803 20.7333 131.27 19.92C131.75 19.0933 132.41 18.4533 133.25 18C134.09 17.5333 135.037 17.3 136.09 17.3C137.143 17.3 138.083 17.5333 138.91 18C139.75 18.4533 140.403 19.0933 140.87 19.92C141.35 20.7333 141.59 21.66 141.59 22.7C141.59 23.74 141.35 24.6733 140.87 25.5C140.403 26.3133 139.75 26.9533 138.91 27.42C138.083 27.8867 137.143 28.12 136.09 28.12ZM136.09 26.44C136.77 26.44 137.377 26.2867 137.91 25.98C138.457 25.66 138.883 25.22 139.19 24.66C139.497 24.0867 139.65 23.4333 139.65 22.7C139.65 21.9667 139.497 21.32 139.19 20.76C138.883 20.1867 138.457 19.7467 137.91 19.44C137.377 19.1333 136.77 18.98 136.09 18.98C135.41 18.98 134.797 19.1333 134.25 19.44C133.717 19.7467 133.29 20.1867 132.97 20.76C132.663 21.32 132.51 21.9667 132.51 22.7C132.51 23.4333 132.663 24.0867 132.97 24.66C133.29 25.22 133.717 25.66 134.25 25.98C134.797 26.2867 135.41 26.44 136.09 26.44ZM148.785 28.12C147.732 28.12 146.785 27.8867 145.945 27.42C145.105 26.9533 144.445 26.3133 143.965 25.5C143.499 24.6733 143.265 23.74 143.265 22.7C143.265 21.66 143.499 20.7333 143.965 19.92C144.445 19.0933 145.105 18.4533 145.945 18C146.785 17.5333 147.732 17.3 148.785 17.3C149.839 17.3 150.779 17.5333 151.605 18C152.445 18.4533 153.099 19.0933 153.565 19.92C154.045 20.7333 154.285 21.66 154.285 22.7C154.285 23.74 154.045 24.6733 153.565 25.5C153.099 26.3133 152.445 26.9533 151.605 27.42C150.779 27.8867 149.839 28.12 148.785 28.12ZM148.785 26.44C149.465 26.44 150.072 26.2867 150.605 25.98C151.152 25.66 151.579 25.22 151.885 24.66C152.192 24.0867 152.345 23.4333 152.345 22.7C152.345 21.9667 152.192 21.32 151.885 20.76C151.579 20.1867 151.152 19.7467 150.605 19.44C150.072 19.1333 149.465 18.98 148.785 18.98C148.105 18.98 147.492 19.1333 146.945 19.44C146.412 19.7467 145.985 20.1867 145.665 20.76C145.359 21.32 145.205 21.9667 145.205 22.7C145.205 23.4333 145.359 24.0867 145.665 24.66C145.985 25.22 146.412 25.66 146.945 25.98C147.492 26.2867 148.105 26.44 148.785 26.44ZM170.201 17.3C171.534 17.3 172.587 17.6867 173.361 18.46C174.147 19.2333 174.541 20.38 174.541 21.9V28H172.621V22.12C172.621 21.0933 172.381 20.32 171.901 19.8C171.434 19.28 170.761 19.02 169.881 19.02C168.907 19.02 168.134 19.3267 167.561 19.94C166.987 20.54 166.701 21.4067 166.701 22.54V28H164.781V22.12C164.781 21.0933 164.541 20.32 164.061 19.8C163.594 19.28 162.921 19.02 162.041 19.02C161.067 19.02 160.294 19.3267 159.721 19.94C159.147 20.54 158.861 21.4067 158.861 22.54V28H156.941V17.4H158.781V18.98C159.167 18.4333 159.674 18.02 160.301 17.74C160.927 17.4467 161.641 17.3 162.441 17.3C163.267 17.3 164.001 17.4667 164.641 17.8C165.281 18.1333 165.774 18.62 166.121 19.26C166.521 18.6467 167.074 18.1667 167.781 17.82C168.501 17.4733 169.307 17.3 170.201 17.3Z" fill="#333333"/>
</svg>
