<svg width="138" height="31" viewBox="0 0 138 31" fill="none" xmlns="http://www.w3.org/2000/svg">
<path d="M5.82733 1.87646L3.90918 3.79461L10.6227 5.71276V21.0579H13.4999V1.87646H5.82733Z" stroke="#DD0913" stroke-width="1.44643"/>
<path d="M23.0906 11.4672L15.4181 5.71276L19.2544 11.4672L15.4181 15.3035L20.2134 19.1398L21.1725 28.7305L23.0906 19.1398L19.2544 15.3035L23.0906 11.4672Z" stroke="#DD0913" stroke-width="1.44643"/>
<path d="M39.2915 12.5197C38.2035 11.901 37.0408 11.533 35.8035 11.4157V21.3037H34.2195V11.4157C32.9715 11.533 31.8035 11.901 30.7155 12.5197L30.1555 11.2557C31.5848 10.4024 33.1955 9.97571 34.9875 9.97571C36.8008 9.97571 38.4221 10.4024 39.8515 11.2557L39.2915 12.5197ZM45.766 12.7437C46.8433 12.7437 47.6966 13.0584 48.326 13.6877C48.966 14.3064 49.286 15.2184 49.286 16.4237V21.3037H47.75V16.5997C47.75 15.7784 47.5526 15.1597 47.158 14.7437C46.7633 14.3277 46.198 14.1197 45.462 14.1197C44.63 14.1197 43.974 14.365 43.494 14.8557C43.014 15.3357 42.774 16.029 42.774 16.9357V21.3037H41.238V9.43171H42.774V14.0237C43.094 13.6184 43.51 13.3037 44.022 13.0797C44.5446 12.8557 45.126 12.7437 45.766 12.7437ZM53.6006 14.2477C53.8673 13.757 54.2619 13.3837 54.7846 13.1277C55.3073 12.8717 55.9419 12.7437 56.6886 12.7437V14.2317C56.6033 14.221 56.4859 14.2157 56.3366 14.2157C55.5046 14.2157 54.8486 14.4664 54.3686 14.9677C53.8993 15.4584 53.6646 16.1624 53.6646 17.0797V21.3037H52.1286V12.8237H53.6006V14.2477ZM62.1356 21.3997C61.2929 21.3997 60.5356 21.213 59.8636 20.8397C59.1916 20.4664 58.6636 19.9544 58.2796 19.3037C57.9063 18.6424 57.7196 17.8957 57.7196 17.0637C57.7196 16.2317 57.9063 15.4904 58.2796 14.8397C58.6636 14.1784 59.1916 13.6664 59.8636 13.3037C60.5356 12.9304 61.2929 12.7437 62.1356 12.7437C62.9783 12.7437 63.7303 12.9304 64.3916 13.3037C65.0636 13.6664 65.5863 14.1784 65.9596 14.8397C66.3436 15.4904 66.5356 16.2317 66.5356 17.0637C66.5356 17.8957 66.3436 18.6424 65.9596 19.3037C65.5863 19.9544 65.0636 20.4664 64.3916 20.8397C63.7303 21.213 62.9783 21.3997 62.1356 21.3997ZM62.1356 20.0557C62.6796 20.0557 63.1649 19.933 63.5916 19.6877C64.0289 19.4317 64.3703 19.0797 64.6156 18.6317C64.8609 18.173 64.9836 17.6504 64.9836 17.0637C64.9836 16.477 64.8609 15.9597 64.6156 15.5117C64.3703 15.053 64.0289 14.701 63.5916 14.4557C63.1649 14.2104 62.6796 14.0877 62.1356 14.0877C61.5916 14.0877 61.1009 14.2104 60.6636 14.4557C60.2369 14.701 59.8956 15.053 59.6396 15.5117C59.3943 15.9597 59.2716 16.477 59.2716 17.0637C59.2716 17.6504 59.3943 18.173 59.6396 18.6317C59.8956 19.0797 60.2369 19.4317 60.6636 19.6877C61.1009 19.933 61.5916 20.0557 62.1356 20.0557ZM73.1879 12.7437C74.2652 12.7437 75.1185 13.0584 75.7479 13.6877C76.3879 14.3064 76.7079 15.2184 76.7079 16.4237V21.3037H75.1719V16.5997C75.1719 15.7784 74.9745 15.1597 74.5799 14.7437C74.1852 14.3277 73.6199 14.1197 72.8839 14.1197C72.0519 14.1197 71.3959 14.365 70.9159 14.8557C70.4359 15.3357 70.1959 16.029 70.1959 16.9357V21.3037H68.6599V12.8237H70.1319V14.1037C70.4412 13.6664 70.8572 13.3304 71.3799 13.0957C71.9132 12.861 72.5159 12.7437 73.1879 12.7437ZM83.4214 20.0557C84.4347 20.0557 85.2507 19.7144 85.8694 19.0317L86.7014 20.0237C86.328 20.4717 85.8534 20.813 85.2774 21.0477C84.712 21.2824 84.0774 21.3997 83.3734 21.3997C82.4774 21.3997 81.6827 21.2184 80.9894 20.8557C80.296 20.4824 79.7574 19.965 79.3734 19.3037C79 18.6424 78.8134 17.8957 78.8134 17.0637C78.8134 16.2424 78.9947 15.501 79.3574 14.8397C79.7307 14.1784 80.2374 13.6664 80.8774 13.3037C81.528 12.9304 82.2587 12.7437 83.0694 12.7437C83.8374 12.7437 84.536 12.9197 85.1654 13.2717C85.7947 13.613 86.296 14.0984 86.6694 14.7277C87.0427 15.357 87.2347 16.0824 87.2454 16.9037L80.5094 18.2157C80.7227 18.8024 81.08 19.2557 81.5814 19.5757C82.0934 19.8957 82.7067 20.0557 83.4214 20.0557ZM83.0694 14.0397C82.536 14.0397 82.056 14.1624 81.6294 14.4077C81.2134 14.653 80.888 14.9997 80.6534 15.4477C80.4187 15.885 80.3014 16.397 80.3014 16.9837V17.1437L85.7254 16.1197C85.5867 15.501 85.2774 14.9997 84.7974 14.6157C84.3174 14.2317 83.7414 14.0397 83.0694 14.0397ZM97.1062 21.3037L94.6902 17.8637C94.3916 17.885 94.1569 17.8957 93.9862 17.8957H91.2182V21.3037H89.6182V10.1037H93.9862C95.4369 10.1037 96.5782 10.4504 97.4102 11.1437C98.2422 11.837 98.6582 12.7917 98.6582 14.0077C98.6582 14.8717 98.4449 15.6077 98.0182 16.2157C97.5916 16.8237 96.9836 17.2664 96.1942 17.5437L98.8502 21.3037H97.1062ZM93.9382 16.5357C94.9516 16.5357 95.7249 16.317 96.2582 15.8797C96.7916 15.4424 97.0582 14.8184 97.0582 14.0077C97.0582 13.197 96.7916 12.5784 96.2582 12.1517C95.7249 11.7144 94.9516 11.4957 93.9382 11.4957H91.2182V16.5357H93.9382ZM104.651 21.3997C103.809 21.3997 103.051 21.213 102.379 20.8397C101.707 20.4664 101.179 19.9544 100.795 19.3037C100.422 18.6424 100.235 17.8957 100.235 17.0637C100.235 16.2317 100.422 15.4904 100.795 14.8397C101.179 14.1784 101.707 13.6664 102.379 13.3037C103.051 12.9304 103.809 12.7437 104.651 12.7437C105.494 12.7437 106.246 12.9304 106.907 13.3037C107.579 13.6664 108.102 14.1784 108.475 14.8397C108.859 15.4904 109.051 16.2317 109.051 17.0637C109.051 17.8957 108.859 18.6424 108.475 19.3037C108.102 19.9544 107.579 20.4664 106.907 20.8397C106.246 21.213 105.494 21.3997 104.651 21.3997ZM104.651 20.0557C105.195 20.0557 105.681 19.933 106.107 19.6877C106.545 19.4317 106.886 19.0797 107.131 18.6317C107.377 18.173 107.499 17.6504 107.499 17.0637C107.499 16.477 107.377 15.9597 107.131 15.5117C106.886 15.053 106.545 14.701 106.107 14.4557C105.681 14.2104 105.195 14.0877 104.651 14.0877C104.107 14.0877 103.617 14.2104 103.179 14.4557C102.753 14.701 102.411 15.053 102.155 15.5117C101.91 15.9597 101.787 16.477 101.787 17.0637C101.787 17.6504 101.91 18.173 102.155 18.6317C102.411 19.0797 102.753 19.4317 103.179 19.6877C103.617 19.933 104.107 20.0557 104.651 20.0557ZM114.807 21.3997C113.965 21.3997 113.207 21.213 112.535 20.8397C111.863 20.4664 111.335 19.9544 110.951 19.3037C110.578 18.6424 110.391 17.8957 110.391 17.0637C110.391 16.2317 110.578 15.4904 110.951 14.8397C111.335 14.1784 111.863 13.6664 112.535 13.3037C113.207 12.9304 113.965 12.7437 114.807 12.7437C115.65 12.7437 116.402 12.9304 117.063 13.3037C117.735 13.6664 118.258 14.1784 118.631 14.8397C119.015 15.4904 119.207 16.2317 119.207 17.0637C119.207 17.8957 119.015 18.6424 118.631 19.3037C118.258 19.9544 117.735 20.4664 117.063 20.8397C116.402 21.213 115.65 21.3997 114.807 21.3997ZM114.807 20.0557C115.351 20.0557 115.837 19.933 116.263 19.6877C116.701 19.4317 117.042 19.0797 117.287 18.6317C117.533 18.173 117.655 17.6504 117.655 17.0637C117.655 16.477 117.533 15.9597 117.287 15.5117C117.042 15.053 116.701 14.701 116.263 14.4557C115.837 14.2104 115.351 14.0877 114.807 14.0877C114.263 14.0877 113.773 14.2104 113.335 14.4557C112.909 14.701 112.567 15.053 112.311 15.5117C112.066 15.9597 111.943 16.477 111.943 17.0637C111.943 17.6504 112.066 18.173 112.311 18.6317C112.567 19.0797 112.909 19.4317 113.335 19.6877C113.773 19.933 114.263 20.0557 114.807 20.0557ZM131.94 12.7437C133.006 12.7437 133.849 13.053 134.468 13.6717C135.097 14.2904 135.412 15.2077 135.412 16.4237V21.3037H133.876V16.5997C133.876 15.7784 133.684 15.1597 133.3 14.7437C132.926 14.3277 132.388 14.1197 131.684 14.1197C130.905 14.1197 130.286 14.365 129.828 14.8557C129.369 15.3357 129.14 16.029 129.14 16.9357V21.3037H127.604V16.5997C127.604 15.7784 127.412 15.1597 127.028 14.7437C126.654 14.3277 126.116 14.1197 125.412 14.1197C124.633 14.1197 124.014 14.365 123.556 14.8557C123.097 15.3357 122.868 16.029 122.868 16.9357V21.3037H121.332V12.8237H122.804V14.0877C123.113 13.6504 123.518 13.3197 124.02 13.0957C124.521 12.861 125.092 12.7437 125.732 12.7437C126.393 12.7437 126.98 12.877 127.492 13.1437C128.004 13.4104 128.398 13.7997 128.676 14.3117C128.996 13.821 129.438 13.437 130.004 13.1597C130.58 12.8824 131.225 12.7437 131.94 12.7437Z" fill="white"/>
</svg>
