<svg width="126" height="105" viewBox="0 0 126 105" fill="none" xmlns="http://www.w3.org/2000/svg">
<rect x="21.2935" width="108.109" height="78.8416" rx="23.8914" transform="rotate(15 21.2935 0)" fill="#FAFAFA"/>
<path d="M39.8542 63.7642C55.032 65.3312 69.5936 66.831 84.6775 68.3817C86.2994 59.3951 87.9028 50.5104 89.5269 41.5154C79.2617 40.7844 69.6928 40.3555 60.1813 39.3459C52.554 38.5388 44.9869 37.1073 37.4264 35.7842C35.3437 35.4219 33.6218 34.0798 33.8417 31.6922C33.9196 30.868 35.0101 29.9324 35.8754 29.4704C36.4705 29.1495 37.4763 29.4634 38.2665 29.6485C43.3686 30.811 48.409 32.5708 53.5718 33.0734C64.6871 34.1657 75.858 34.6502 87.0161 35.2825C88.3187 35.3557 89.673 34.5354 90.9605 34.6313C92.8165 34.7728 95.1232 34.866 96.3277 35.9716C97.3117 36.8669 97.4219 39.2895 97.1432 40.8962C95.5269 50.1957 93.6811 59.4515 91.9542 68.7302C91.8447 69.3058 92.024 70.0033 92.2684 70.5581C93.0517 72.3693 92.8097 73.9058 91.1002 74.9512C89.3252 76.0413 87.7285 77.0992 85.331 75.6116C83.3935 74.4074 80.8858 73.7978 78.5686 73.5772C65.4534 72.3138 52.3288 71.2524 39.2036 70.093C37.0909 69.9095 34.7258 70.0675 32.9406 69.1622C30.1796 67.764 30.2889 65.0889 31.8919 62.4403C33.6884 59.4699 35.411 56.275 36.2401 52.9476C37.103 49.4602 36.6546 45.6658 37.2075 42.0687C37.4506 40.4613 38.4746 38.0401 39.6222 37.7248C41.5872 37.1927 43.01 38.6504 43.557 41.11C44.8475 46.8292 43.2546 52.1405 41.9307 57.5149C41.463 59.4269 40.7037 61.2606 39.8692 63.7415L39.8542 63.7642Z" fill="#1CB0F6"/>
</svg>
