<svg width="122" height="119" viewBox="0 0 122 119" fill="none" xmlns="http://www.w3.org/2000/svg">
<rect x="43.4424" width="90.476" height="85.1087" rx="23.0024" transform="rotate(30 43.4424 0)" fill="#FAFAFA"/>
<path d="M78.8918 85.8148C76.35 90.0667 73.3033 89.4947 70.4924 88.3035C59.0475 83.4044 47.613 78.4573 36.3211 73.2329C32.445 71.4446 27.5793 70.1642 27.0026 64.7414C26.8238 63.0914 27.5992 60.3917 28.807 59.5962C38.0423 53.5794 47.4844 47.8979 56.8715 42.1307C59.7273 40.3802 62.466 37.7169 65.4891 37.2141C68.8145 36.6701 72.5611 37.7181 75.7451 39.0168C76.5907 39.3611 75.9198 43.1463 76.0791 45.3426C76.891 56.2069 77.7655 67.0533 78.5774 77.9176C78.7665 80.5448 78.7913 83.185 78.884 85.8283L78.8918 85.8148ZM65.1677 72.3518C65.1151 64.8755 65.0627 58.5144 64.9964 50.7604C58.6639 55.1258 53.4736 58.478 48.6572 62.2978C48.0145 62.808 48.6897 66.9748 49.6606 67.3735C54.275 69.3002 59.2057 70.5283 65.1677 72.3518Z" fill="#30FF57"/>
</svg>
