<svg width="125" height="115" viewBox="0 0 125 115" fill="none" xmlns="http://www.w3.org/2000/svg">
<g clip-path="url(#clip0_88_389)">
<rect y="28.2793" width="105.558" height="89" rx="27.5969" transform="rotate(-15 0 28.2793)" fill="#FAFAFA"/>
<path d="M57.7747 51.5903C61.7419 43.3509 65.3384 35.2623 69.5377 27.5057C71.0784 24.6665 74.0502 22.6056 76.6594 19.8811C79.121 24.7734 78.2019 28.2068 76.1165 32.0042C72.2379 39.0786 68.9377 46.4709 65.2318 54.0748C73.4857 55.8523 81.1641 57.4756 88.8343 59.1833C90.3422 59.5195 92.1499 59.7857 93.1728 60.7659C94.3597 61.8976 94.8513 63.7707 95.6385 65.3282C94.1351 65.9675 92.4882 67.3752 91.1549 67.1156C82.8392 65.5294 74.5673 63.6847 66.3405 61.6635C63.7779 61.0341 62.7973 61.5539 61.8456 64.0605C59.883 69.2747 57.8786 74.2944 57.9582 80.1128C58.021 84.9488 56.5456 85.961 53.1837 85.6075C49.3876 85.2058 47.725 83.5642 48.5984 79.8448C49.8327 74.5585 51.7001 69.411 53.3744 64.233C53.962 62.3997 54.7625 60.6327 55.492 58.7922C47.7547 56.1052 40.2233 53.4967 32.6919 50.8881C30.7449 50.2172 28.4274 49.6969 28.944 46.9471C29.4613 44.2381 32.3115 42.9501 35.3138 43.9551C42.3302 46.2904 49.3077 48.7492 56.2986 51.1427C56.7514 51.299 57.2253 51.4188 57.76 51.5737L57.7747 51.5903Z" fill="#FFC800"/>
</g>
<defs>
<clipPath id="clip0_88_389">
<rect y="28.2793" width="105.558" height="89" rx="27.5969" transform="rotate(-15 0 28.2793)" fill="white"/>
</clipPath>
</defs>
</svg>
