<svg width="55" height="54" viewBox="0 0 55 54" fill="none" xmlns="http://www.w3.org/2000/svg">
<rect x="0.887695" width="54" height="54" rx="18.2022" fill="#FAFAFA"/>
<path d="M40.0193 13.9551C41.6242 22.0037 36.6209 25.4482 32.1412 29.3823C33.4199 30.7394 34.6728 31.8217 35.5739 33.136C36.0803 33.8747 36.415 35.2233 36.0717 35.9105C35.7627 36.5203 34.218 37.0958 33.5572 36.8296C31.5662 36.0393 29.7383 34.8367 27.5241 33.6256C25.6447 35.0687 23.4735 36.8038 21.2336 38.4444C20.3154 39.1144 19.2856 39.9648 18.2557 40.0421C17.3546 40.1023 16.3849 39.1917 15.4495 38.7107C15.9129 38.0235 16.239 37.1474 16.8655 36.6664C19.6717 34.5189 22.5638 32.4746 25.6876 30.2069C23.5507 27.5526 21.4911 25.3365 19.9035 22.8197C19.4143 22.0466 19.9807 20.3458 20.5128 19.2979C20.7101 18.9028 22.4437 18.7567 22.9929 19.1605C24.366 20.1569 25.5074 21.4969 26.6488 22.7853C27.4469 23.6958 28.0906 24.7524 29.0946 26.1525C32.8192 21.9951 36.2777 18.1469 40.0365 13.9551H40.0193Z" fill="#FF9600"/>
</svg>
